<?xml version="1.0" encoding="UTF-8"?>
<!DOCTYPE svg PUBLIC "-//W3C//DTD SVG 1.1//EN" "http://www.w3.org/Graphics/SVG/1.1/DTD/svg11.dtd">
<svg version="1.1" xmlns="http://www.w3.org/2000/svg" xmlns:xlink="http://www.w3.org/1999/xlink" x="0" y="0" width="360" height="223" viewBox="0, 0, 360, 223">
  <g id="Layer_1" transform="translate(-99,2)">
    <path d="M113.525,149.358 C98.407,119.754 97.86,93.298 107.104,70.048 C117.858,43.007 141.864,20.487 171.525,2.499 L175.649,-0 L175.436,39.073 C191.411,39.387 205.569,42.789 219.689,46.186 C240.889,51.282 258.586,56.577 279.262,53.505 C297.018,50.88 257.643,88.262 202.848,99.482 C167.69,106.685 149.468,126.72 144.169,147.618 C141.221,159.244 142.249,171.135 146.567,181.202 C150.845,191.175 158.362,199.355 168.428,203.671 C181.294,209.187 198.406,208.437 218.43,197.223 C225.993,196.964 233.557,196.03 241.112,194.551 C242.22,194.336 243.328,194.108 244.433,193.869 L242.717,195.239 C211.249,220.356 183.686,223.322 163.77,214.435 C151.128,208.794 141.611,198.374 136.146,185.786 C130.718,173.281 129.286,158.619 132.76,144.394 C138.833,119.551 159.798,96.02 200.441,87.694 C211.831,85.36 224.11,82.423 235.489,78.001 C244.152,74.634 252.308,70.397 259.154,64.903 C249.471,64.83 238.305,62.149 225.846,59.159 C208.236,54.929 187.952,50.058 166.206,51.338 L163.335,51.508 L163.349,48.629 L163.501,21.756 C141.255,36.917 124.662,55.449 117.317,76.688 C111.569,93.307 111.481,111.671 118.772,131.472 C117.682,134.255 116.794,137.075 116.1,139.913 C115.2,143.598 114.63,147.315 114.372,151.016 L113.525,149.358" fill="#132B39"/>
    <path d="M176.872,64.613 L185.841,55.121 L198.513,65.786 L176.872,64.613" fill="#132B39"/>
    <path d="M150.622,161.727 C182.427,176.617 211.479,173.811 238.803,162.422 C266.452,150.894 292.495,130.551 317.835,110.751 C325.686,104.617 333.475,98.532 341.241,92.75 L300.752,105.491 L320.662,58.233 L317.625,59.137 C310.986,64.848 304.682,71.764 298.713,79.872 C288.958,93.114 280.098,109.516 272.12,129.006 C266.56,132.678 260.943,136.14 255.266,139.307 C264.661,113.287 275.449,91.696 287.655,74.641 C301.2,55.717 316.523,42.334 333.659,34.637 C351.181,26.77 370.01,25.625 390.569,30.583 C401.778,32.805 473.843,68.557 454.454,67.343 C412.522,51.918 371.193,84.266 329.419,116.966 L325.239,120.234 C299.311,140.492 272.678,161.3 243.907,173.473 C214.836,185.774 183.758,189.215 149.397,174.38 L148.102,173.82 L147.819,172.423 C147.555,171.109 147.335,169.768 147.162,168.413 C146.984,167.023 146.856,165.657 146.78,164.321 L146.522,159.809 L150.622,161.727" fill="#132B39"/>
  </g>
</svg>
